<svg width="197" height="197" viewBox="0 0 197 197" fill="none" xmlns="http://www.w3.org/2000/svg">
<circle cx="98.5" cy="98.5" r="98.5" fill="#55AA37"/>
<path d="M55.4442 136.345C46.6895 111.564 62.2263 87.643 86.119 40.7079C86.8785 39.2158 89.0379 39.2435 89.7576 40.7552C108.624 80.382 131.566 108.5 119.499 136.5C106.592 166.448 71.1221 164.507 55.5792 136.644C55.5265 136.549 55.4803 136.447 55.4442 136.345Z" fill="#DA1F26"/>
<path d="M40.3269 76.1648C36.1254 67.8249 40.1381 59.868 48.2379 46.4125C49.0248 45.1053 50.9284 45.1318 51.6747 46.4626C59.4927 60.404 62.7993 68.1725 60.1464 76.0803C60.0536 76.3568 59.8897 76.6119 59.6819 76.8166C52.3586 84.0305 48.1185 83.0358 40.7865 76.747C40.5989 76.5861 40.4381 76.3856 40.3269 76.1648Z" fill="#DA1F26"/>
<path d="M115.941 86.1065L132.716 52.1142C133.448 50.6313 135.565 50.6336 136.305 52.1127C148.618 76.7443 156.684 92.5218 159.922 104.704C159.975 104.902 159.994 105.113 159.983 105.317C158.433 133.953 146.747 134.164 126.853 134.017C125.621 134.008 124.688 132.893 124.866 131.674C127.207 115.64 124.7 105.466 115.949 87.898C115.67 87.3363 115.663 86.6692 115.941 86.1065Z" fill="#DA1F26"/>
<path d="M55.4442 136.345C46.6895 111.564 62.2263 87.643 86.119 40.7079C86.8785 39.2158 89.0379 39.2435 89.7576 40.7552C108.624 80.382 131.566 108.5 119.499 136.5C106.592 166.448 71.1221 164.507 55.5792 136.644C55.5265 136.549 55.4803 136.447 55.4442 136.345Z" stroke="black"/>
<path d="M40.3269 76.1648C36.1254 67.8249 40.1381 59.868 48.2379 46.4125C49.0248 45.1053 50.9284 45.1318 51.6747 46.4626C59.4927 60.404 62.7993 68.1725 60.1464 76.0803C60.0536 76.3568 59.8897 76.6119 59.6819 76.8166C52.3586 84.0305 48.1185 83.0358 40.7865 76.747C40.5989 76.5861 40.4381 76.3856 40.3269 76.1648Z" stroke="black"/>
<path d="M115.941 86.1065L132.716 52.1142C133.448 50.6313 135.565 50.6336 136.305 52.1127C148.618 76.7443 156.684 92.5218 159.922 104.704C159.975 104.902 159.994 105.113 159.983 105.317C158.433 133.953 146.747 134.164 126.853 134.017C125.621 134.008 124.688 132.893 124.866 131.674C127.207 115.64 124.7 105.466 115.949 87.898C115.67 87.3363 115.663 86.6692 115.941 86.1065Z" stroke="black"/>
<path d="M153 111.5C148.39 113.748 153.5 100.5 150.5 87.5L150.661 87.8348C156.949 100.877 160.525 108.293 153 111.5Z" fill="white"/>
<path d="M111.5 113C112.824 103.522 111.25 98.1179 109 88.5C117.32 103.543 121.004 111.678 117 123C110.862 125.978 108.878 125.135 111.5 113Z" fill="white"/>
<path d="M58 67.5C57.9746 64.993 57.6826 63.7125 57 61.5C58.991 64.0814 60.0193 65.6095 59.5 70.5C56.5399 71.3648 56.4091 70.5384 58 67.5Z" fill="white"/>
<path d="M153 111.5C148.39 113.748 153.5 100.5 150.5 87.5L150.661 87.8348C156.949 100.877 160.525 108.293 153 111.5Z" stroke="black"/>
<path d="M111.5 113C112.824 103.522 111.25 98.1179 109 88.5C117.32 103.543 121.004 111.678 117 123C110.862 125.978 108.878 125.135 111.5 113Z" stroke="black"/>
<path d="M58 67.5C57.9746 64.993 57.6826 63.7125 57 61.5C58.991 64.0814 60.0193 65.6095 59.5 70.5C56.5399 71.3648 56.4091 70.5384 58 67.5Z" stroke="black"/>
</svg>
